<svg width="254" height="230" viewBox="0 0 254 230" fill="none" xmlns="http://www.w3.org/2000/svg">
<path d="M113.796 9.47515C118.187 -2.98816 135.813 -2.98812 140.204 9.47519L161.2 69.0639C163.174 74.6648 168.466 78.4113 174.405 78.4113L239.778 78.4113C253.613 78.4113 259.064 96.3415 247.571 104.042L196.686 138.134C191.378 141.691 189.151 148.391 191.274 154.417L211.161 210.859C215.637 223.56 201.352 234.638 190.165 227.142L134.792 190.044C130.078 186.885 123.922 186.885 119.207 190.044L63.8354 227.142C52.6476 234.638 38.3633 223.56 42.8386 210.859L62.7256 154.417C64.8491 148.391 62.6224 141.691 57.3138 138.134L6.42941 104.042C-5.06447 96.3415 0.386787 78.4113 14.2219 78.4113L79.5954 78.4113C85.5339 78.4113 90.8262 74.6648 92.7997 69.0639L113.796 9.47515Z" fill="#F5C518"/>
</svg>
